<?xml version="1.0" encoding="UTF-8" standalone="no"?>
<svg
   xmlns:dc="http://purl.org/dc/elements/1.1/"
   xmlns:cc="http://creativecommons.org/ns#"
   xmlns:rdf="http://www.w3.org/1999/02/22-rdf-syntax-ns#"
   xmlns:svg="http://www.w3.org/2000/svg"
   xmlns="http://www.w3.org/2000/svg"
   xmlns:sodipodi="http://sodipodi.sourceforge.net/DTD/sodipodi-0.dtd"
   xmlns:inkscape="http://www.inkscape.org/namespaces/inkscape"
   viewBox="-0.692 0.5 51.573 55.285"
   width="2385"
   height="2500"
   id="svg2"
   version="1.1"
   inkscape:version="0.91 r13725"
   sodipodi:docname="lichess-white.svg">
  <metadata
     id="metadata10">
    <rdf:RDF>
      <cc:Work
         rdf:about="">
        <dc:format>image/svg+xml</dc:format>
        <dc:type
           rdf:resource="http://purl.org/dc/dcmitype/StillImage" />
        <dc:title></dc:title>
      </cc:Work>
    </rdf:RDF>
  </metadata>
  <defs
     id="defs8" />
  <sodipodi:namedview
     pagecolor="#ffffff"
     bordercolor="#666666"
     borderopacity="1"
     objecttolerance="10"
     gridtolerance="10"
     guidetolerance="10"
     inkscape:pageopacity="0"
     inkscape:pageshadow="2"
     inkscape:window-width="2560"
     inkscape:window-height="1417"
     id="namedview6"
     showgrid="false"
     inkscape:zoom="0.26700352"
     inkscape:cx="488.39357"
     inkscape:cy="579.63603"
     inkscape:window-x="-8"
     inkscape:window-y="-8"
     inkscape:window-maximized="1"
     inkscape:current-layer="svg2" />
  <path
     d="M38.956.5c-3.53.418-6.452.902-9.286 2.984C5.534 1.786-.692 18.533.68 29.364 3.493 50.214 31.918 55.785 41.329 41.7c-7.444 7.696-19.276 8.752-28.323 3.084S-.506 27.392 4.683 17.567C9.873 7.742 18.996 4.535 29.03 6.405c2.43-1.418 5.225-3.22 7.655-3.187l-1.694 4.86 12.752 21.37c-.439 5.654-5.459 6.112-5.459 6.112-.574-1.47-1.634-2.942-4.842-6.036-3.207-3.094-17.465-10.177-15.788-16.207-2.001 6.967 10.311 14.152 14.04 17.663 3.73 3.51 5.426 6.04 5.795 6.756 0 0 9.392-2.504 7.838-8.927L37.4 7.171z"
     stroke="#000"
     stroke-linejoin="round"
     id="path4"
     style="stroke-width:1.65855;stroke-miterlimit:4;stroke-dasharray:none;stroke:#ffffff;stroke-opacity:1;fill:#ffffff;fill-opacity:1" />
</svg>
